<svg width="75" height="75" viewBox="0 0 81 59" fill="none" xmlns="http://www.w3.org/2000/svg">
<path d="M60.9592 22.875H56.6649C55.3898 18.0752 52.755 13.7192 49.0601 10.3021C45.3651 6.88491 40.758 4.5436 35.7623 3.54416C30.7667 2.54473 25.5827 2.92726 20.7996 4.64827C16.0164 6.36929 11.8258 9.35978 8.70398 13.28C5.58214 17.2001 3.65423 21.8928 3.13932 26.8247C2.6244 31.7566 3.54313 36.73 5.7911 41.1797C8.03908 45.6295 11.5262 49.3772 15.8561 51.997C20.1861 54.6168 25.1853 56.0037 30.2857 56H60.9592C65.4787 56 69.8131 54.255 73.0089 51.1489C76.2046 48.0429 78 43.8301 78 39.4375C78 35.0448 76.2046 30.8321 73.0089 27.726C69.8131 24.62 65.4787 22.875 60.9592 22.875Z" stroke="white" stroke-width="5" stroke-linecap="round" stroke-linejoin="round"/>
</svg>
